<?xml version="1.0" encoding="UTF-8"?>
<svg xmlns="http://www.w3.org/2000/svg" xmlns:xlink="http://www.w3.org/1999/xlink" viewBox="0 0 60 60" width="30px" height="30px">
<g id="surface12991917">
<path style=" stroke:none;fill-rule:nonzero;fill:rgb(0%,0%,0%);fill-opacity:1;" d="M 30 55.199219 C 16.082031 55.199219 4.800781 43.917969 4.800781 30 C 4.800781 16.082031 16.082031 4.800781 30 4.800781 C 43.917969 4.800781 55.199219 16.082031 55.199219 30 C 55.199219 43.917969 43.917969 55.199219 30 55.199219 Z M 30 55.199219 "/>
<path style=" stroke:none;fill-rule:nonzero;fill:rgb(100%,100%,100%);fill-opacity:1;" d="M 30 3.875 C 15.554688 3.875 3.839844 15.585938 3.839844 30.035156 C 3.839844 42.292969 12.28125 52.546875 23.660156 55.386719 C 23.539062 55.035156 23.460938 54.625 23.460938 54.117188 L 23.460938 49.644531 C 22.398438 49.644531 20.621094 49.644531 20.171875 49.644531 C 18.382812 49.644531 16.792969 48.875 16.019531 47.445312 C 15.164062 45.855469 15.015625 43.425781 12.890625 41.9375 C 12.261719 41.445312 12.742188 40.878906 13.46875 40.957031 C 14.808594 41.335938 15.917969 42.253906 16.964844 43.617188 C 18.007812 44.984375 18.5 45.296875 20.445312 45.296875 C 21.390625 45.296875 22.800781 45.242188 24.132812 45.03125 C 24.847656 43.214844 26.082031 41.542969 27.59375 40.753906 C 18.882812 39.859375 14.726562 35.523438 14.726562 29.640625 C 14.726562 27.109375 15.804688 24.65625 17.636719 22.59375 C 17.035156 20.542969 16.277344 16.363281 17.867188 14.773438 C 21.789062 14.773438 24.15625 17.316406 24.726562 18 C 26.679688 17.332031 28.824219 16.953125 31.078125 16.953125 C 33.335938 16.953125 35.492188 17.332031 37.449219 18.007812 C 38.011719 17.324219 40.382812 14.773438 44.3125 14.773438 C 45.90625 16.367188 45.140625 20.5625 44.535156 22.609375 C 46.355469 24.667969 47.429688 27.113281 47.429688 29.640625 C 47.429688 35.519531 43.277344 39.851562 34.582031 40.753906 C 36.972656 42 38.71875 45.511719 38.71875 48.15625 L 38.71875 54.117188 C 38.71875 54.34375 38.667969 54.507812 38.644531 54.699219 C 48.835938 51.128906 56.160156 41.449219 56.160156 30.035156 C 56.160156 15.585938 44.445312 3.875 30 3.875 Z M 30 3.875 "/>
</g>
</svg>
